<svg xmlns="http://www.w3.org/2000/svg"><defs><clipPath id="clip0_3_47"><path fill="#fff" d="M0 0h18v18H0z"/></clipPath><clipPath id="clip0_55_371"><path fill="#fff" d="M0 0h16v16H0z"/></clipPath><clipPath id="clip0_55_281"><path fill="#fff" d="M0 0h28v28H0z"/></clipPath><clipPath id="clip0_55_385"><path fill="#fff" d="M0 0h16v16H0z"/></clipPath><clipPath id="clip0_89_1274"><path fill="#fff" d="M0 0h20v20H0z"/></clipPath><clipPath id="clip0_112_1634"><path fill="#fff" transform="rotate(90 7 7)" d="M0 0h14v14H0z"/></clipPath><clipPath id="clip0_146_842"><path fill="#fff" d="M0 0h18v18H0z"/></clipPath><clipPath id="clip0_55_341"><path fill="#fff" d="M0 0h24v24H0z"/></clipPath></defs><symbol id="icon-add" viewBox="0 0 10 10"><path d="M5.624 4.376V0H4.376v4.376H0v1.248h4.376V10h1.248V5.624H10V4.376H5.624z" fill="#757575"/></symbol><symbol id="icon-calendar" viewBox="0 0 18 18"><path d="M14.525 1.386h-.672v-.68a.703.703 0 00-1.405 0v.68H5.552v-.68a.703.703 0 10-1.405 0v.68h-.672A3.48 3.48 0 000 4.861v9.66a3.48 3.48 0 003.475 3.475h11.05A3.48 3.48 0 0018 14.521V4.86a3.48 3.48 0 00-3.475-3.475zM3.475 2.792h.672v1.37a.703.703 0 101.405 0v-1.37h6.896v1.37a.703.703 0 101.405 0v-1.37h.672c1.141 0 2.07.928 2.07 2.07v.67H1.404v-.67c0-1.142.929-2.07 2.07-2.07zm11.05 13.798H3.475a2.072 2.072 0 01-2.07-2.07V6.939h15.19v7.583c0 1.14-.929 2.07-2.07 2.07zM6.243 9.703a.703.703 0 01-.702.703H4.158a.703.703 0 110-1.406h1.383c.388 0 .702.315.702.703zm8.301 0a.703.703 0 01-.702.703h-1.383a.703.703 0 110-1.406h1.383c.388 0 .702.315.702.703zm-4.154 0a.703.703 0 01-.703.703H8.305a.703.703 0 110-1.406h1.382c.388 0 .703.315.703.703zm-4.147 4.146a.703.703 0 01-.702.703H4.158a.703.703 0 110-1.405h1.383c.388 0 .702.314.702.702zm8.301 0a.703.703 0 01-.702.703h-1.383a.703.703 0 110-1.405h1.383c.388 0 .702.314.702.702zm-4.154 0a.703.703 0 01-.703.703H8.305a.703.703 0 110-1.405h1.382c.388 0 .703.314.703.702z" fill="#757575"/></symbol><symbol id="icon-chart" viewBox="0 0 18 18"><path d="M17.25 16.5H1.5V.75a.75.75 0 00-1.5 0v16.5a.75.75 0 00.75.75h16.5a.75.75 0 100-1.5z" fill="#4CAF50"/><path d="M3 12.75V15a.75.75 0 101.5 0v-2.25a.75.75 0 10-1.5 0zM6.75 7.5V15a.75.75 0 101.5 0V7.5a.75.75 0 00-1.5 0zm4.5 8.25A.75.75 0 0012 15V9a.75.75 0 10-1.5 0v6a.75.75 0 00.75.75zm4.5-.75V4.5a.75.75 0 10-1.5 0V15a.75.75 0 101.5 0z" fill="#4CAF50"/></symbol><symbol id="icon-close" viewBox="0 0 18 18"><g clip-path="url(#clip0_3_47)" fill="#757579"><path d="M.935 18a.926.926 0 01-.654-1.581L16.428.27a.926.926 0 111.31 1.31L1.59 17.728A.929.929 0 01.935 18z"/><path d="M17.084 18a.919.919 0 01-.655-.272L.281 1.581A.926.926 0 011.59.271L17.738 16.42a.926.926 0 01-.654 1.58z"/></g></symbol><symbol id="icon-coins" viewBox="0 0 14 14"><path d="M4.959 13.417A5.29 5.29 0 007 13.02a5.203 5.203 0 002.042.397c2.126 0 3.792-1.135 3.792-2.584V8.417c0-1.45-1.666-2.584-3.792-2.584a5.33 5.33 0 00-.292.01V3.111C8.75 1.69 7.085.583 4.96.583c-2.127 0-3.792 1.109-3.792 2.528v7.778c0 1.42 1.665 2.528 3.792 2.528zm6.708-2.584c0 .67-1.078 1.417-2.625 1.417s-2.625-.747-2.625-1.417v-.54c.79.481 1.7.726 2.625.707a4.858 4.858 0 002.625-.707v.54zM9.042 7c1.547 0 2.625.747 2.625 1.417s-1.078 1.416-2.625 1.416-2.625-.746-2.625-1.416C6.417 7.747 7.495 7 9.042 7zM4.959 1.75c1.547 0 2.625.718 2.625 1.36 0 .644-1.078 1.362-2.625 1.362s-2.625-.717-2.625-1.361S3.412 1.75 4.959 1.75zM2.334 4.948c.793.47 1.702.71 2.625.691.922.02 1.831-.22 2.625-.691v1.078a3.774 3.774 0 00-1.692.937c-.307.067-.62.1-.933.102-1.547 0-2.625-.718-2.625-1.361v-.756zm0 2.593c.793.47 1.702.71 2.625.69.103 0 .204-.012.306-.018a1.807 1.807 0 00-.015.204v1.216c-.098.006-.192.025-.291.025-1.547 0-2.625-.718-2.625-1.362v-.755zm0 2.592a4.94 4.94 0 002.625.691c.098 0 .194-.007.291-.012v.021c.009.497.2.973.536 1.338a4.57 4.57 0 01-.827.079c-1.547 0-2.625-.717-2.625-1.36v-.757z" fill="#fff"/></symbol><symbol id="icon-download" viewBox="0 0 16 16"><g clip-path="url(#clip0_55_371)"><path d="M12.806 8.703L8 13.51 3.194 8.703l.884-.884 3.297 3.297V0h1.25v11.116l3.297-3.297.884.884zM16 14.75H0V16h16v-1.25z" fill="#757575"/></g></symbol><symbol id="icon-dropdown" viewBox="0 0 20 20"><path d="M19.268 8.232a2.5 2.5 0 11-3.536 3.536 2.5 2.5 0 013.536-3.536zm-7.5 0a2.5 2.5 0 11-3.536 3.536 2.5 2.5 0 013.536-3.536zm-7.5 0a2.5 2.5 0 11-3.536 3.536 2.5 2.5 0 013.536-3.536z" fill="#BDBDBD"/></symbol><symbol id="icon-eye" viewBox="0 0 28 28"><g clip-path="url(#clip0_55_281)"><path d="M27.84 13.53c-2.342-4.929-7.666-9.374-13.895-9.374C6.937 4.156 1.9 9.64.051 13.531a1.094 1.094 0 000 .938c2.342 4.93 7.666 9.375 13.894 9.375 7.008 0 12.046-5.483 13.895-9.375a1.094 1.094 0 000-.938zm-13.895 8.126c-5.039 0-9.216-3.32-11.667-7.656 2.44-4.318 6.616-7.656 11.667-7.656 5.039 0 9.217 3.32 11.668 7.656-2.44 4.318-6.616 7.656-11.668 7.656zm0-13.125a5.475 5.475 0 00-5.468 5.47 5.475 5.475 0 005.468 5.468A5.475 5.475 0 0019.415 14a5.475 5.475 0 00-5.47-5.469zm0 8.75a3.285 3.285 0 01-3.28-3.28 3.285 3.285 0 013.28-3.282A3.285 3.285 0 0117.227 14a3.285 3.285 0 01-3.282 3.281z" fill="#757575"/></g></symbol><symbol id="icon-metro" viewBox="0 0 20 20"><path d="M13.242 2.248L10 12.468 6.758 2.249C2.901 3.573 0 7.169 0 11.292c0 2.483 1.013 4.772 2.652 6.46h4.7l.493-2.137c-5.615-2.2-4.554-9.018-2.518-10.13.242.072 3.782 12.217 3.782 12.217h1.781s3.541-12.145 3.783-12.218c2.036 1.113 3.097 7.93-2.518 10.131l.493 2.137h4.7C18.987 16.064 20 13.775 20 11.292c0-4.123-2.902-7.719-6.758-9.044z" fill="#8EB3F5"/></symbol><symbol id="icon-note" viewBox="0 0 16 16"><g clip-path="url(#clip0_55_385)" fill="#757575"><path d="M11.5 15.999H1.833A1.835 1.835 0 010 14.165V4.5c0-1.012.822-1.834 1.833-1.834H7.5a.5.5 0 010 1H1.833A.835.835 0 001 4.5v9.666c0 .46.374.834.833.834H11.5c.46 0 .833-.374.833-.834V8.5a.5.5 0 011 0v5.666A1.835 1.835 0 0111.5 16z"/><path d="M5.848 10.65a.499.499 0 01-.49-.597l.471-2.358a.499.499 0 01.137-.255L12.87.536a1.836 1.836 0 012.592 0c.346.346.537.806.537 1.296s-.19.95-.537 1.296l-6.904 6.905a.496.496 0 01-.256.136l-2.356.472a.494.494 0 01-.099.01zm2.357-.97h.007-.007zM6.78 8.04l-.294 1.473 1.473-.294 6.797-6.798A.83.83 0 0015 1.832a.835.835 0 00-1.423-.59L6.78 8.04z"/><path d="M14.167 4.218a.496.496 0 01-.354-.147l-1.885-1.886a.5.5 0 11.707-.707l1.886 1.886a.5.5 0 01-.354.854z"/></g></symbol><symbol id="icon-pdf" viewBox="0 0 20 20"><g clip-path="url(#clip0_89_1274)" fill="#fff"><path d="M14.375 10h-2.5a.625.625 0 00-.625.625v5c0 .345.28.625.625.625h2.5c.69 0 1.25-.56 1.25-1.25v-3.75c0-.69-.56-1.25-1.25-1.25zm0 5H12.5v-3.75h1.875V15zM20 11.25V10h-3.125a.625.625 0 00-.625.625v5.625h1.25v-2.5H20V12.5h-2.5v-1.25H20z"/><path d="M1.25 18.125V1.875c0-.345.28-.625.625-.625h9.375v2.5c0 .69.56 1.25 1.25 1.25H15v1.875h1.25v-2.5a.625.625 0 00-.181-.444l-3.75-3.75A.625.625 0 0011.875 0h-10C.839 0 0 .84 0 1.875v16.25C0 19.16.84 20 1.875 20H6.25v-1.25H1.875a.625.625 0 01-.625-.625z"/><path d="M9.375 10h-2.5a.625.625 0 00-.625.625v5.625H7.5v-1.875h1.875c.69 0 1.25-.56 1.25-1.25V11.25c0-.69-.56-1.25-1.25-1.25zm0 3.125H7.5V11.25h1.875v1.875z"/></g></symbol><symbol id="icon-pdf_2" viewBox="0 0 31 12"><path d="M4.478 6.248c.394 0 .738-.048 1.032-.144.293-.101.536-.243.728-.424.197-.187.344-.41.44-.672a2.61 2.61 0 00.144-.888c0-.31-.048-.59-.144-.84a1.66 1.66 0 00-.432-.64 1.88 1.88 0 00-.728-.4 3.355 3.355 0 00-1.04-.144H2.87v4.152h1.608zm0-5.816c.773 0 1.442.09 2.008.272.565.181 1.032.435 1.4.76.368.325.64.715.816 1.168.181.453.272.95.272 1.488 0 .56-.094 1.075-.28 1.544a3.203 3.203 0 01-.84 1.2c-.374.336-.843.597-1.408.784-.56.187-1.216.28-1.968.28H2.87V12H.718V.432h3.76zm16.418 5.784c0 .848-.141 1.627-.424 2.336-.283.71-.68 1.32-1.192 1.832a5.333 5.333 0 01-1.848 1.192c-.72.283-1.52.424-2.4.424h-4.408V.432h4.408c.88 0 1.68.144 2.4.432.72.283 1.336.68 1.848 1.192a5.28 5.28 0 011.192 1.824c.283.71.424 1.488.424 2.336zm-2.208 0c0-.635-.085-1.203-.256-1.704a3.421 3.421 0 00-.728-1.28 3.109 3.109 0 00-1.152-.808 3.92 3.92 0 00-1.52-.28h-2.248v8.144h2.248c.565 0 1.072-.093 1.52-.28a3.153 3.153 0 001.152-.8c.32-.352.563-.779.728-1.28.17-.507.256-1.077.256-1.712zm6.268-4.072v3.424h4.336v1.72h-4.336V12h-2.16V.432h7.296v1.712h-5.136z" fill="#fff"/></symbol><symbol id="icon-price-down" viewBox="0 0 14 14"><g clip-path="url(#clip0_112_1634)"><path d="M7 13.781l5.346-5.296H9.603V3.973L7 6.552l-2.614-2.59v4.523H1.654L7 13.78z" fill="#E3594E"/><path d="M1.654 8.263h2.51v-4.3a.22.22 0 01.375-.157l2.458 2.437 2.447-2.426a.22.22 0 01.375.156v4.29h2.527a.22.22 0 01.155.378l-5.345 5.296a.22.22 0 01-.31 0L1.502 8.641a.22.22 0 01.153-.378zm2.95-3.773v3.995c0 .12-.098.221-.22.221H2.186L7 13.47l4.81-4.766H9.603a.222.222 0 01-.221-.222V4.504L7.153 6.71a.22.22 0 01-.309 0l-2.24-2.22z" fill="#C34B3F"/><path d="M4.23 1.939a.22.22 0 01.312-.003L7 4.375 9.447 1.95a.22.22 0 11.31.314L7.152 4.843a.22.22 0 01-.309 0L4.23 2.253a.224.224 0 010-.314z" fill="#C34B3F"/><path d="M4.23.066a.22.22 0 01.312-.003L7 2.499 9.447.077a.22.22 0 11.31.314L7.152 2.97a.22.22 0 01-.309 0L4.23.38a.224.224 0 010-.314z" fill="#C34B3F"/></g></symbol><symbol id="icon-price" viewBox="0 0 24 24"><path fill="none" d="M0 0h24v24H0z"/><path d="M13.5 3H7v9H5v2h2v2H5v2h2v3h2v-3h4v-2H9v-2h4.5c3.04 0 5.5-2.46 5.5-5.5S16.54 3 13.5 3zm0 9H9V5h4.5C15.43 5 17 6.57 17 8.5S15.43 12 13.5 12z"/></symbol><symbol id="icon-time" viewBox="0 0 14 14"><path d="M7 .583A6.417 6.417 0 1013.416 7 6.424 6.424 0 007 .583zM7 12.25A5.25 5.25 0 1112.25 7 5.257 5.257 0 017 12.25z" fill="#757575"/><path d="M7.584 6.758V3.5a.583.583 0 00-1.167 0V7c0 .155.062.303.17.412l1.75 1.75a.583.583 0 00.826-.824l-1.58-1.58z" fill="#757575"/></symbol><symbol id="icon-up" viewBox="0 0 24 24"><path d="M0 0h24v24H0V0z" fill="none"/><path d="M4 12l1.41 1.41L11 7.83V20h2V7.83l5.58 5.59L20 12l-8-8-8 8z"/></symbol><symbol id="icon-view" viewBox="0 0 18 18"><g clip-path="url(#clip0_146_842)"><path d="M17.897 8.698c-1.505-3.169-4.928-6.026-8.932-6.026-4.505 0-7.744 3.524-8.932 6.026a.704.704 0 000 .604c1.505 3.169 4.928 6.026 8.932 6.026 4.505 0 7.743-3.524 8.932-6.026a.704.704 0 000-.604zm-8.932 5.224c-3.24 0-5.925-2.135-7.5-4.922 1.568-2.776 4.252-4.922 7.5-4.922 3.239 0 5.925 2.135 7.5 4.922-1.569 2.776-4.253 4.922-7.5 4.922zm0-8.438A3.52 3.52 0 005.449 9a3.52 3.52 0 003.516 3.516A3.52 3.52 0 0012.48 9a3.52 3.52 0 00-3.515-3.516zm0 5.625A2.112 2.112 0 016.855 9c0-1.163.947-2.11 2.11-2.11 1.163 0 2.11.947 2.11 2.11 0 1.163-.947 2.11-2.11 2.11z"/></g></symbol><symbol id="icon-vk" viewBox="0 0 24 24"><g clip-path="url(#clip0_55_341)"><path d="M23.786 17.367c-.065-.108-.464-.975-2.384-2.757-2.01-1.866-1.74-1.563.681-4.79 1.475-1.965 2.064-3.165 1.88-3.678-.176-.49-1.26-.36-1.26-.36l-3.607.02s-.267-.035-.466.083c-.194.117-.318.387-.318.387s-.572 1.521-1.334 2.814c-1.606 2.73-2.25 2.873-2.512 2.704-.61-.395-.458-1.587-.458-2.433 0-2.645.4-3.748-.781-4.033-.393-.094-.681-.157-1.685-.168-1.287-.013-2.378.005-2.994.306-.411.201-.728.65-.534.675.238.032.778.146 1.065.536.37.502.357 1.633.357 1.633s.213 3.113-.497 3.5c-.487.266-1.155-.276-2.587-2.753a23.087 23.087 0 01-1.289-2.67s-.106-.26-.297-.4a1.49 1.49 0 00-.555-.224l-3.43.021s-.514.015-.703.239c-.168.2-.013.61-.013.61s2.685 6.281 5.724 9.448c2.789 2.903 5.954 2.712 5.954 2.712h1.434s.434-.048.654-.286c.204-.22.197-.63.197-.63s-.029-1.925.865-2.209c.88-.278 2.012 1.86 3.21 2.684.906.623 1.595.486 1.595.486l3.206-.045s1.677-.103.882-1.422z" fill="#fff"/></g></symbol></svg>