<svg width="14" height="14" viewBox="0 0 14 14" fill="none" xmlns="http://www.w3.org/2000/svg">
<path d="M6.99968 0.583344C5.73058 0.583344 4.48998 0.959675 3.43477 1.66475C2.37955 2.36982 1.55711 3.37197 1.07145 4.54446C0.585788 5.71696 0.458717 7.00714 0.706305 8.25185C0.953894 9.49656 1.56502 10.6399 2.46241 11.5373C3.3598 12.4347 4.50314 13.0458 5.74785 13.2934C6.99256 13.541 8.28274 13.4139 9.45523 12.9283C10.6277 12.4426 11.6299 11.6201 12.3349 10.5649C13.04 9.50972 13.4163 8.26912 13.4163 7.00002C13.4143 5.29883 12.7377 3.66789 11.5347 2.46496C10.3318 1.26204 8.70087 0.58535 6.99968 0.583344V0.583344ZM6.99968 12.25C5.96132 12.25 4.94629 11.9421 4.08293 11.3652C3.21957 10.7884 2.54667 9.96842 2.14931 9.00911C1.75195 8.0498 1.64798 6.99419 1.85055 5.97579C2.05313 4.95739 2.55314 4.02193 3.28737 3.2877C4.02159 2.55348 4.95705 2.05346 5.97545 1.85089C6.99385 1.64832 8.04945 1.75228 9.00876 2.14964C9.96808 2.54701 10.788 3.21991 11.3649 4.08327C11.9418 4.94663 12.2497 5.96167 12.2497 7.00002C12.248 8.39189 11.6943 9.72626 10.7101 10.7105C9.72591 11.6947 8.39154 12.2483 6.99968 12.25V12.25Z" fill="#757575"/>
<path d="M7.58367 6.75849V3.49999C7.58367 3.34528 7.52221 3.19691 7.41281 3.08751C7.30341 2.97811 7.15504 2.91666 7.00033 2.91666C6.84562 2.91666 6.69724 2.97811 6.58785 3.08751C6.47845 3.19691 6.41699 3.34528 6.41699 3.49999V6.99999C6.41703 7.15468 6.47851 7.30303 6.58791 7.4124L8.33792 9.1624C8.44794 9.26866 8.59529 9.32745 8.74824 9.32613C8.90119 9.3248 9.0475 9.26345 9.15565 9.15529C9.26381 9.04714 9.32516 8.90083 9.32649 8.74788C9.32781 8.59494 9.26902 8.44758 9.16276 8.33757L7.58367 6.75849Z" fill="#757575"/>
</svg>
